<?xml version="1.0" standalone="no"?>
<!DOCTYPE svg PUBLIC "-//W3C//DTD SVG 20010904//EN"
 "http://www.w3.org/TR/2001/REC-SVG-20010904/DTD/svg10.dtd">
<svg version="1.0" xmlns="http://www.w3.org/2000/svg"
 width="700.000000pt" height="700.000000pt" viewBox="0 0 700.000000 700.000000"
 preserveAspectRatio="xMidYMid meet">
<metadata>
Created by potrace 1.14, written by Peter Selinger 2001-2017
</metadata>
<g transform="translate(0.000000,700.000000) scale(0.100000,-0.100000)"
fill="#000000" stroke="none">
<path d="M3279 6996 c-2 -2 -40 -6 -84 -10 -131 -11 -301 -36 -415 -61 -14 -3
-36 -8 -50 -11 -98 -19 -351 -98 -500 -156 -572 -222 -1023 -528 -1375 -932
-418 -479 -733 -1177 -821 -1815 -3 -25 -8 -57 -10 -71 -12 -79 -19 -220 -19
-405 0 -188 10 -409 19 -424 2 -3 7 -29 10 -57 3 -29 7 -62 10 -75 3 -13 8
-41 11 -63 23 -163 106 -470 187 -686 91 -245 238 -527 385 -738 420 -603
1057 -1077 1763 -1312 124 -41 336 -99 420 -114 14 -2 52 -9 85 -15 33 -6 83
-13 110 -16 28 -4 61 -8 75 -11 148 -25 782 -25 862 1 7 2 38 6 68 9 30 3 80
10 110 15 30 6 66 12 80 15 77 13 114 21 200 43 493 125 930 344 1325 662 215
174 427 398 617 656 288 391 500 894 602 1430 2 11 9 56 16 100 6 44 13 90 15
103 27 164 26 651 -1 832 -42 279 -83 456 -158 685 -147 443 -351 825 -615
1149 -36 44 -72 87 -80 96 -9 9 -32 34 -52 56 -260 282 -580 514 -998 726
-276 139 -661 278 -898 323 -129 24 -247 44 -293 50 -30 3 -71 8 -90 11 -42 6
-506 15 -511 10z m60 -440 c-1 -23 -13 -68 -26 -101 -45 -114 -33 -205 34
-265 21 -18 54 -47 73 -64 42 -38 22 -9 -41 60 -26 28 -52 67 -57 87 -12 43
-8 106 8 136 10 20 13 17 41 -36 19 -37 60 -87 113 -138 104 -100 119 -126
101 -179 -8 -21 -27 -53 -43 -70 -63 -68 -75 -82 -93 -111 -10 -16 -19 -34
-19 -39 0 -6 13 11 30 37 16 26 33 47 37 47 5 0 34 25 67 56 32 30 60 53 63
51 2 -3 6 -42 9 -88 5 -71 2 -97 -19 -166 -14 -46 -23 -83 -20 -83 2 0 15 24
28 54 77 175 38 369 -105 514 -28 29 -50 52 -48 53 2 0 17 3 33 5 17 3 53 12
80 21 28 10 56 17 63 16 6 0 23 -1 37 -2 31 -1 92 -54 110 -95 7 -17 14 -25
14 -18 3 41 -63 112 -123 132 -35 11 -52 10 -121 -9 -75 -20 -146 4 -166 57
-12 32 -19 119 -11 157 l5 28 181 -7 c100 -4 192 -9 206 -10 14 -2 50 -7 80
-11 30 -3 69 -9 85 -11 286 -48 476 -99 721 -195 305 -119 669 -341 893 -545
l24 -22 -34 -31 c-19 -17 -43 -33 -54 -37 -119 -38 -194 -116 -197 -202 -3
-71 2 -155 8 -149 3 3 8 44 10 92 3 89 17 122 69 169 21 19 65 39 71 33 3 -2
-3 -24 -12 -48 -12 -31 -18 -82 -19 -169 -2 -69 -3 -137 -4 -152 -1 -18 -12
-35 -34 -52 -29 -23 -46 -26 -132 -31 -54 -3 -102 -8 -106 -12 -4 -5 46 -8
112 -8 65 0 119 -2 119 -4 0 -2 -15 -24 -34 -50 -42 -56 -75 -83 -164 -134
-46 -27 -58 -37 -37 -32 91 19 213 118 262 212 46 86 59 149 62 292 1 24 1 24
22 5 12 -10 46 -33 76 -49 75 -41 98 -73 98 -138 0 -29 -4 -65 -7 -82 -4 -16
1 -6 11 24 32 97 2 169 -96 226 -43 26 -75 63 -88 103 -12 40 36 116 106 168
l33 24 90 -93 c269 -276 461 -562 629 -937 48 -107 96 -244 146 -415 21 -75
76 -340 85 -415 11 -90 16 -136 21 -196 l5 -60 -52 4 c-29 2 -70 13 -92 24
-92 47 -202 33 -263 -34 -21 -23 -51 -54 -68 -70 -16 -15 -24 -28 -18 -28 7 0
36 23 65 51 76 75 131 93 217 74 44 -9 38 -26 -18 -52 -29 -14 -82 -57 -136
-112 -49 -50 -101 -95 -116 -102 -38 -15 -85 1 -135 47 -77 72 -124 106 -136
101 -9 -4 -8 -6 3 -6 8 -1 32 -18 51 -38 106 -111 128 -137 123 -142 -22 -21
-180 -17 -255 7 -71 23 -89 22 -41 -2 48 -25 140 -46 202 -46 111 0 254 65
338 154 19 20 38 36 41 36 3 0 7 -12 8 -27 1 -16 9 -48 17 -73 23 -72 24 -95
6 -136 -20 -44 -33 -56 -87 -85 -24 -12 -29 -17 -14 -13 99 26 153 117 129
220 -19 81 -19 97 1 141 22 49 56 63 161 63 80 0 75 10 73 -170 -2 -148 -12
-292 -30 -410 -3 -19 -7 -48 -9 -65 -11 -86 -59 -298 -96 -416 -127 -417 -337
-795 -615 -1110 l-42 -47 -33 47 c-19 25 -47 73 -62 106 -33 70 -67 109 -119
136 -30 15 -55 19 -127 17 -50 -1 -88 -5 -85 -7 3 -3 46 -9 95 -12 76 -5 94
-10 125 -34 36 -27 74 -80 74 -102 0 -7 -18 -4 -52 9 -44 17 -75 20 -178 20
-69 -1 -139 2 -155 6 -43 12 -63 60 -70 172 -7 107 -14 130 -16 49 -1 -30 -2
-82 -3 -116 0 -35 -3 -63 -6 -63 -11 0 -57 35 -99 77 -24 23 -61 75 -82 115
-22 40 -37 62 -35 48 12 -76 83 -179 167 -242 74 -55 148 -80 261 -86 l97 -5
-23 -31 c-13 -17 -36 -55 -50 -84 -27 -53 -66 -81 -117 -85 -11 -1 -19 -5 -19
-10 0 -11 68 2 103 20 15 7 45 42 66 76 64 100 125 121 197 69 41 -31 114
-107 114 -120 0 -10 -128 -134 -230 -223 -403 -353 -965 -621 -1470 -704 -19
-3 -46 -7 -60 -10 -14 -3 -47 -7 -75 -11 -27 -3 -59 -8 -69 -10 -10 -2 -65 -6
-122 -10 l-103 -6 6 53 c3 30 10 62 15 72 18 35 38 112 38 150 0 60 -26 108
-95 172 -79 74 -86 65 -11 -14 60 -62 75 -93 78 -151 1 -37 -18 -100 -31 -100
-3 0 -15 21 -25 48 -14 32 -50 77 -118 146 -54 54 -101 109 -104 122 -9 36 12
85 59 134 65 70 97 110 97 123 0 7 -6 3 -12 -8 -6 -11 -25 -33 -42 -48 -17
-16 -54 -51 -83 -78 l-52 -48 -6 30 c-18 82 -8 182 30 294 4 11 -2 6 -14 -10
-58 -86 -65 -255 -16 -377 15 -38 31 -68 35 -68 5 0 11 -8 14 -18 4 -11 30
-42 58 -70 28 -28 50 -53 47 -56 -2 -2 -20 -6 -39 -9 -19 -3 -57 -13 -83 -22
-82 -29 -152 1 -198 84 -14 26 -18 29 -13 11 9 -36 54 -90 94 -112 37 -20 99
-20 170 -1 26 7 49 6 82 -4 40 -11 48 -18 62 -54 23 -56 21 -186 -3 -191 -32
-8 -302 3 -416 17 -22 3 -60 7 -85 10 -164 20 -382 72 -585 140 -382 127 -704
307 -1008 563 l-87 74 36 32 c20 18 62 42 93 55 68 27 112 64 140 117 18 34
21 55 19 131 -3 103 -18 103 -18 0 0 -69 -15 -116 -47 -152 -26 -30 -65 -55
-84 -55 -16 0 -15 5 3 53 16 43 20 75 19 179 0 70 4 139 9 153 17 45 65 65
157 65 45 0 84 4 87 8 4 7 -87 15 -166 15 -21 0 -38 1 -38 4 0 2 14 24 30 49
35 50 100 102 168 136 30 14 41 24 30 26 -9 2 -36 -7 -59 -19 -160 -81 -246
-215 -256 -399 -3 -52 -7 -97 -9 -99 -2 -2 -11 4 -20 13 -9 9 -42 30 -73 45
-75 39 -92 59 -106 129 -3 19 5 64 19 107 4 11 -2 4 -12 -15 -14 -25 -19 -50
-17 -92 2 -72 20 -98 99 -151 95 -64 117 -123 71 -191 -28 -42 -95 -106 -110
-106 -13 0 -174 167 -260 271 -247 296 -442 651 -564 1021 -36 112 -91 321
-106 403 -12 71 -35 235 -40 295 -4 36 -8 78 -10 93 -3 27 -2 28 43 26 26 -2
72 -14 102 -27 64 -29 160 -33 206 -9 31 16 148 136 140 144 -2 2 -28 -19 -58
-47 -63 -62 -92 -78 -149 -85 -41 -5 -109 9 -109 23 0 4 24 19 53 35 52 27 96
64 152 128 50 57 103 92 136 91 36 -1 58 -14 128 -79 30 -26 67 -56 85 -66 30
-18 30 -18 6 0 -13 10 -36 31 -50 47 -14 17 -46 52 -71 78 -28 30 -42 51 -36
55 6 4 50 8 97 9 67 2 101 -2 157 -20 80 -26 88 -20 18 13 -47 22 -77 29 -158
35 -115 8 -241 -41 -340 -134 l-63 -59 -19 72 c-36 139 -20 203 63 247 20 10
31 19 23 20 -22 0 -75 -36 -101 -72 -27 -36 -32 -101 -16 -204 7 -40 5 -59 -9
-87 -25 -53 -84 -68 -224 -58 -11 1 -13 35 -7 209 7 226 8 238 37 422 82 508
300 1013 606 1400 16 21 125 153 137 166 14 15 83 -74 102 -131 19 -55 73
-117 121 -141 28 -13 62 -18 130 -19 112 0 109 18 -4 20 -85 2 -121 16 -165
62 -28 30 -53 83 -39 83 5 0 26 -8 47 -17 30 -13 73 -17 184 -18 87 -1 154 -6
166 -13 31 -17 51 -77 53 -161 2 -78 18 -133 18 -64 0 21 1 73 3 115 l2 78 30
-18 c47 -27 124 -116 155 -179 17 -36 29 -51 31 -41 2 10 -11 44 -28 75 -86
160 -225 244 -407 247 -45 0 -83 2 -83 2 0 1 18 33 40 70 23 38 44 76 49 84
15 30 73 51 126 46 28 -2 59 -7 70 -10 11 -4 4 1 -15 10 -44 20 -120 20 -160
-1 -17 -9 -47 -42 -67 -73 -43 -68 -64 -87 -108 -102 -28 -9 -40 -8 -72 9 -38
19 -133 112 -133 129 0 5 26 36 58 68 393 397 842 656 1392 803 91 24 274 60
344 68 28 3 54 7 57 8 3 2 48 7 100 10 52 4 95 8 96 9 1 0 18 1 37 2 37 1 37
1 35 -40z"/>
<path d="M3345 5459 c-38 -4 -87 -10 -107 -13 -21 -3 -55 -9 -75 -12 -140 -21
-347 -89 -498 -163 -488 -239 -860 -670 -1020 -1181 -30 -94 -61 -228 -71
-300 -4 -30 -9 -66 -11 -80 -9 -57 -11 -360 -3 -420 5 -36 12 -81 14 -100 5
-32 19 -106 30 -155 27 -121 88 -288 148 -408 189 -376 497 -689 866 -878 204
-105 460 -182 677 -205 129 -13 436 -6 487 11 7 2 31 6 53 9 191 26 481 135
672 253 190 119 380 284 493 428 17 22 37 48 45 57 89 108 227 359 281 511 31
86 82 274 89 321 3 27 8 52 10 55 26 43 26 492 0 621 -3 14 -8 39 -11 55 -51
292 -202 616 -403 870 -57 71 -215 233 -287 293 -113 94 -343 232 -469 282
-33 13 -64 27 -70 31 -32 21 -297 91 -395 104 -25 3 -62 8 -83 11 -58 9 -283
11 -362 3z m404 -1018 c167 -49 299 -128 427 -255 187 -187 286 -421 287 -681
2 -368 -206 -710 -530 -874 -260 -131 -568 -137 -828 -17 -205 95 -373 259
-470 461 -101 207 -124 419 -71 654 20 91 80 224 144 321 33 49 166 191 217
230 79 61 208 123 330 158 100 29 104 30 270 27 119 -2 165 -7 224 -24z"/>
<path d="M3448 4315 c-2 -2 -29 -6 -61 -9 -252 -29 -503 -217 -616 -461 -60
-130 -80 -227 -76 -375 13 -510 502 -883 997 -760 248 62 459 244 554 478 93
231 81 478 -34 694 -136 253 -394 418 -676 431 -47 2 -87 3 -88 2z"/>
<path d="M1780 5134 c0 -6 7 -19 16 -30 14 -18 14 -18 3 6 -14 31 -19 36 -19
24z"/>
<path d="M5190 1895 c0 -5 5 -17 10 -25 5 -8 10 -10 10 -5 0 6 -5 17 -10 25
-5 8 -10 11 -10 5z"/>
<path d="M1880 1800 c-9 -6 -10 -10 -3 -10 6 0 15 5 18 10 8 12 4 12 -15 0z"/>
<path d="M5220 1337 c36 -21 70 -30 70 -19 0 5 -12 12 -27 14 -16 3 -37 8 -48
12 -12 4 -10 1 5 -7z"/>
</g>
</svg>
